<svg xmlns="http://www.w3.org/2000/svg" viewBox="0 0 512 512">
<defs><clipPath id="word"><rect x="335" y="258" width="1016" height="249"/></clipPath></defs>
<rect width="512" height="512" rx="96" fill="#05080C"/>
<g transform="translate(-56.3,114.3) scale(0.37052)" clip-path="url(#word)">
<g transform="translate(0.000000,941.000000) scale(0.100000,-0.100000)" fill="#FFFFFF" stroke="none">
<path d="M6980 6763 c-184 -31 -335 -163 -390 -341 -19 -62 -20 -94 -20 -842
0 -748 1 -780 20 -842 41 -134 137 -244 268 -306 l77 -37 1290 -3 c964 -2
1304 0 1345 9 176 37 323 188 371 379 11 45 14 195 12 814 -2 733 -2 761 -22
826 -37 120 -129 233 -242 294 -106 58 -51 56 -1424 55 -693 -1 -1271 -4
-1285 -6z m2420 -1183 l0 -600 -1145 0 -1145 0 0 593 c0 327 3 597 7 600 3 4
519 7 1145 7 l1138 0 0 -600z M10360 6751 c0 -11 1019 -1041 1030 -1041 13 0
380 361 380 374 0 6 -150 161 -333 344 l-332 332 -373 0 c-204 0 -372 -4 -372
-9z M3410 5565 l0 -1175 1380 0 1380 0 0 295 0 295 -1106 0 -1105 0 1 733 c1
402 1 798 1 880 l-1 147 -275 0 -275 0 0 -1175z M12230 5245 l-184 -185 256
-257 c141 -142 289 -293 330 -335 l73 -78 378 0 c207 0 377 3 377 7 0 11
-1023 1033 -1035 1033 -5 0 -93 -83 -195 -185z M3438 3783 c-16 -4 -18 -23
-18 -219 l0 -214 155 0 155 0 0 30 0 30 -120 0 -120 0 -2 187 c-3 199 -3 199
-50 186z M4230 3571 l0 -221 35 0 35 0 -2 218 -3 217 -32 3 -33 3 0 -220z
M4872 3740 l-52 -50 0 -123 0 -124 43 -47 c43 -46 44 -46 109 -46 65 0 67 0
73 -30 4 -16 20 -41 37 -55 26 -22 39 -25 82 -23 47 3 51 5 54 31 3 24 0 27
-25 27 -15 0 -38 3 -50 6 -25 7 -40 37 -22 43 7 2 32 22 56 44 l43 40 0 137 0
138 -46 41 -47 41 -101 0 -102 0 -52 -50z m255 -42 c21 -20 23 -29 23 -130 0
-102 -1 -110 -25 -133 -21 -22 -33 -25 -98 -25 -60 0 -79 4 -101 21 -25 20
-26 23 -26 133 0 152 3 156 117 156 75 0 90 -3 110 -22z M5750 3609 l0 -181
39 -39 39 -39 104 0 104 0 42 43 42 43 0 177 0 177 -35 0 -35 0 0 -164 c0
-150 -2 -165 -21 -190 -19 -24 -27 -26 -93 -26 -63 0 -75 3 -94 23 -20 21 -22
35 -24 187 l-3 165 -32 3 -33 3 0 -182z M6657 3784 c-4 -4 -7 -103 -7 -221 l0
-213 35 0 35 0 -2 218 -3 217 -25 3 c-14 2 -29 0 -33 -4z M7257 3783 c-4 -3
-7 -102 -7 -220 l0 -213 143 0 143 0 47 48 47 48 0 126 0 126 -51 46 -51 46
-132 0 c-73 0 -136 -3 -139 -7z m283 -90 c18 -24 21 -39 19 -127 -1 -95 -3
-101 -29 -128 -27 -26 -34 -28 -114 -28 l-86 0 0 155 0 155 94 0 c91 0 95 -1
116 -27z M8754 3759 c-69 -54 -72 -60 -72 -189 -1 -128 5 -144 64 -194 30 -25
38 -26 141 -26 l109 0 42 43 42 43 0 136 0 136 -46 41 -47 41 -97 0 c-93 0
-99 -1 -136 -31z m233 -61 c21 -20 23 -29 23 -132 0 -99 -2 -112 -22 -133 -19
-20 -31 -23 -102 -23 -68 0 -83 3 -103 22 -21 20 -23 29 -23 130 0 151 5 158
118 158 74 0 89 -3 109 -22z M9565 3781 c-3 -2 8 -18 23 -36 37 -44 122 -162
122 -169 0 -4 -34 -53 -75 -111 -41 -57 -75 -106 -75 -109 0 -3 17 -6 38 -6
37 0 42 4 96 80 32 44 62 80 66 80 5 0 34 -36 65 -80 54 -77 58 -80 96 -80 21
0 39 3 39 6 0 4 -34 53 -75 109 -41 57 -75 107 -75 111 0 4 32 49 70 100 39
52 70 98 70 104 0 5 -16 10 -35 10 -33 0 -40 -6 -93 -80 -31 -43 -59 -79 -62
-79 -3 0 -31 36 -63 80 -54 75 -59 79 -93 77 -19 -1 -37 -4 -39 -7z M10407
3783 c-4 -3 -1 -13 7 -22 7 -9 45 -67 85 -129 l71 -113 0 -84 0 -85 35 0 35 0
0 80 c0 80 0 81 53 163 73 114 108 175 105 184 -2 4 -15 9 -30 11 -30 3 -46
-15 -121 -139 l-38 -63 -29 45 c-15 24 -44 70 -64 102 -32 51 -39 57 -69 57
-19 0 -37 -3 -40 -7z M11337 3742 l-47 -48 0 -129 0 -129 42 -43 42 -43 111 0
111 0 42 43 c42 42 42 44 42 115 l0 72 -100 0 -100 0 0 -30 c0 -29 1 -29 63
-32 60 -3 62 -4 65 -32 2 -19 -4 -36 -19 -52 -20 -22 -31 -24 -104 -24 -72 0
-84 3 -103 23 -20 21 -22 34 -22 133 0 103 2 112 23 132 20 19 35 22 108 22
87 0 109 -8 109 -41 0 -17 31 -28 63 -21 29 6 19 40 -24 87 l-42 45 -106 0
-107 0 -47 -48z M12200 3570 l0 -220 160 0 160 0 0 30 0 30 -125 0 -125 0 0
65 0 64 108 3 107 3 3 28 3 27 -110 0 -111 0 0 60 0 59 123 3 122 3 0 30 0 30
-157 3 -158 3 0 -221z M13020 3571 l0 -221 35 0 35 0 0 167 0 167 112 -168
111 -167 39 3 40 3 1 215 1 215 -23 3 c-13 2 -27 0 -32 -5 -4 -4 -9 -79 -11
-165 -1 -86 -6 -154 -10 -150 -3 4 -53 77 -111 162 l-103 155 -42 3 -42 3 0
-220z"/>
</g>
<g transform="translate(0.000000,941.000000) scale(0.100000,-0.100000)" fill="#07B7F5" stroke="none">
<path d="M11671 5713 c-565 -566 -1092 -1094 -1171 -1175 l-144 -148 380 0
379 0 1165 1165 c641 640 1166 1169 1168 1175 3 7 -116 10 -373 10 l-377 0
-1027 -1027z M7128 3023 c750 -2 1974 -2 2720 0 746 1 133 2 -1363 2 -1496 0
-2107 -1 -1357 -2z M4345 2749 c-3 -4 -21 -54 -41 -111 -58 -168 -56 -165 -93
-67 -18 46 -39 105 -48 131 -15 48 -16 48 -59 48 l-44 0 2 -177 3 -178 25 0
25 0 5 130 5 130 19 -50 c11 -27 32 -84 48 -127 27 -71 51 -100 69 -81 7 9 98
236 101 256 1 6 5 -49 8 -123 5 -129 6 -135 27 -138 29 -4 30 4 29 197 l-1
163 -38 3 c-21 1 -40 -1 -42 -6z M9280 2744 c-14 -9 -31 -24 -37 -32 -15 -19
-17 -86 -3 -112 11 -21 75 -46 142 -55 105 -14 81 -105 -27 -105 -47 0 -65 9
-76 37 -6 18 -15 23 -31 21 -35 -5 -34 -36 3 -74 32 -33 35 -34 110 -34 69 0
81 3 108 26 27 22 31 33 31 73 0 75 -27 98 -135 116 -71 11 -75 14 -75 51 0
36 9 44 50 46 72 3 90 -2 100 -27 6 -15 17 -25 30 -25 43 0 33 54 -16 87 -37
24 -142 29 -174 7z M10503 2727 c-57 -50 -40 -132 33 -163 18 -8 46 -14 62
-14 16 0 43 -5 61 -11 25 -9 31 -16 31 -39 0 -38 -32 -60 -87 -60 -42 0 -83
25 -83 50 0 6 -11 10 -25 10 -37 0 -33 -40 7 -79 30 -29 37 -31 105 -31 67 0
75 2 108 31 46 41 49 96 7 139 -26 25 -99 50 -151 50 -26 0 -43 24 -39 57 3
27 5 28 71 31 64 3 68 2 79 -23 8 -18 18 -25 32 -23 34 5 30 36 -8 74 -34 34
-37 35 -102 32 -59 -2 -73 -6 -101 -31z M11827 2752 l-97 -3 2 -177 3 -177
114 -3 c63 -1 118 1 122 5 5 5 6 18 3 31 -6 21 -11 22 -101 22 l-94 0 3 48 3
47 60 3 c86 3 105 9 105 32 0 18 -7 20 -80 20 -76 0 -80 1 -86 24 -3 13 -4 35
-2 47 3 23 8 24 93 29 82 5 90 7 93 26 4 27 -12 30 -141 26z M12397 2752 l-37
-3 2 -177 3 -177 25 0 25 0 5 130 5 130 49 -128 c27 -70 52 -130 56 -132 22
-13 42 17 86 132 l49 125 5 -128 c5 -124 6 -129 27 -132 29 -4 31 8 29 198
l-1 155 -40 3 -40 3 -49 -132 -49 -131 -15 33 c-8 19 -30 77 -48 129 -19 52
-38 97 -42 100 -4 3 -24 4 -45 2z M3428 2728 c-3 -13 -4 -93 -4 -178 l1 -155
123 -3 122 -3 0 26 c0 28 -1 29 -110 29 l-75 1 -3 51 -3 52 75 4 c42 2 81 9
87 15 23 23 -3 33 -82 33 l-79 0 0 50 0 50 73 0 c91 0 117 7 117 31 0 18 -9
19 -119 19 -115 0 -119 -1 -123 -22z M4837 2743 c-2 -5 -2 -14 -1 -20 1 -7 2
-85 3 -173 l1 -160 104 0 c98 0 106 2 135 26 27 22 31 32 31 74 0 32 -6 55
-20 73 -17 22 -18 26 -5 37 25 21 20 102 -8 128 -21 20 -34 22 -130 22 -58 0
-108 -3 -110 -7z m203 -62 c6 -13 7 -28 1 -45 -8 -21 -19 -26 -65 -31 -75 -10
-86 -4 -86 43 0 21 3 42 7 45 3 4 35 7 69 7 52 0 65 -3 74 -19z m11 -154 c7
-15 7 -31 0 -50 -9 -23 -17 -27 -53 -28 -45 -2 -88 -2 -100 0 -4 1 -6 23 -5
51 l2 50 73 0 c66 0 73 -2 83 -23z M5512 2573 l3 -178 120 0 120 0 0 25 c0 25
-1 25 -90 26 l-90 2 -3 50 -3 51 78 3 c72 3 78 5 81 26 4 24 -6 26 -105 22
l-53 -2 0 51 0 50 93 3 c87 3 92 4 95 26 3 22 2 22 -123 22 l-125 0 2 -177z
M6152 2573 l3 -178 101 -3 101 -3 41 41 42 40 0 104 0 104 -40 36 -40 36 -105
0 -105 0 2 -177z m210 110 c15 -13 18 -32 18 -106 0 -117 -8 -127 -102 -127
l-68 0 0 125 0 125 67 0 c48 0 72 -5 85 -17z M6839 2746 c-2 -2 -3 -83 -1
-180 l3 -176 95 0 c162 0 184 23 184 186 l0 112 -35 31 c-35 30 -38 31 -139
31 -56 0 -105 -2 -107 -4z m211 -66 c17 -17 20 -33 20 -104 0 -110 -11 -125
-95 -126 -33 -1 -66 -1 -72 -1 -10 1 -13 33 -13 126 l0 125 70 0 c57 0 74 -4
90 -20z M7525 2738 c-2 -7 -3 -87 -2 -178 l2 -165 123 -3 123 -3 -3 28 -3 28
-92 3 -93 3 0 48 0 48 80 5 c86 5 96 9 87 33 -5 12 -24 15 -87 15 l-80 0 0 50
0 49 93 3 c87 3 92 4 95 26 3 22 2 22 -118 22 -88 0 -122 -3 -125 -12z M8160
2570 l0 -180 95 0 c101 0 133 10 170 50 17 19 20 38 22 128 l1 106 -38 38 -38
38 -106 0 -106 0 0 -180z m208 114 c20 -14 22 -23 22 -105 0 -83 -2 -92 -25
-115 -15 -15 -32 -23 -41 -20 -9 3 -36 6 -60 6 l-44 0 0 125 0 125 63 0 c40 0
70 -5 85 -16z M9840 2744 c0 -4 26 -50 58 -103 53 -89 57 -101 62 -171 5 -73
6 -75 33 -78 l27 -3 0 72 c0 70 2 76 55 164 73 123 74 125 38 125 -25 0 -33
-9 -72 -80 -24 -43 -47 -77 -51 -75 -4 3 -27 38 -51 80 -37 65 -46 75 -71 75
-15 0 -28 -3 -28 -6z M11092 2728 c3 -20 10 -23 56 -26 l52 -3 0 -155 0 -155
23 3 c21 3 22 7 27 153 l5 150 53 3 c48 3 52 5 52 28 l0 24 -136 0 c-135 0
-135 0 -132 -22z M13151 2724 c-26 -21 -31 -33 -31 -69 0 -55 37 -89 107 -99
90 -13 113 -24 113 -56 0 -37 -32 -60 -85 -60 -44 0 -85 22 -85 46 0 22 -54
14 -58 -9 -2 -10 11 -32 31 -52 34 -34 37 -35 112 -35 75 0 78 1 112 35 32 32
34 38 28 77 -10 63 -38 87 -121 100 -83 13 -96 22 -92 62 3 31 3 31 71 34 64
3 68 2 77 -23 7 -19 16 -26 32 -23 32 4 33 30 3 67 -26 30 -30 31 -105 31 -70
0 -82 -3 -109 -26z"/>
</g>
</g>
</svg>