<svg xmlns="http://www.w3.org/2000/svg" width="1200" height="630" viewBox="0 0 1200 630" role="img" aria-labelledby="title desc"><title id="title">microassert · Vanderhell Development</title><desc id="desc">A caller-owned assert/panic context supports severities, hooks and bounded copied history.</desc><defs><linearGradient id="bg" x2="1" y2="1"><stop stop-color="#071522"/><stop offset="1" stop-color="#102e46"/></linearGradient><pattern id="grid" width="32" height="32" patternUnits="userSpaceOnUse"><path d="M32 0H0V32" fill="none" stroke="#8db5c8" stroke-opacity=".08"/></pattern></defs><rect width="1200" height="630" fill="url(#bg)"/><rect width="1200" height="630" fill="url(#grid)"/><circle cx="170" cy="170" r="235" fill="#8ed8b8" opacity=".07"/><g><path d="M500 282h70l24-72 36 147 35-112 31 52h185" fill="none" stroke="#8ed8b8" stroke-width="4"/><g fill="#0c2336" stroke="#8ed8b8" stroke-width="2"><circle cx="570" cy="282" r="8"/><circle cx="670" cy="357" r="8"/><circle cx="766" cy="297" r="8"/><circle cx="881" cy="297" r="8"/></g><text x="605" y="420" fill="#9fb7c6" font-family="monospace" font-size="12">CAPTURE · RETAIN · DECODE</text></g><text x="80" y="88" fill="#8ed8b8" font-family="monospace" font-size="19" letter-spacing="3">VANDERHELL DEVELOPMENT</text><text x="80" y="280" fill="#f2f8fb" font-family="system-ui,sans-serif" font-size="58" font-weight="700">microassert</text><text x="82" y="334" fill="#9fb7c6" font-family="monospace" font-size="16" letter-spacing="2">MICRO-TOOLKIT · DIAGNOSTICS</text><text x="82" y="395" fill="#d1dfe6" font-family="system-ui,sans-serif" font-size="21"><tspan x="82" dy="0">A caller-owned assert/panic context supports severities, hooks and</tspan><tspan x="82" dy="30">bounded copied history.</tspan></text><text x="82" y="570" fill="#7894a7" font-family="monospace" font-size="15">C99 · Development · TECHNICAL PRODUCT</text><path d="M80 118H1120" stroke="#8ed8b8" stroke-opacity=".45"/><path d="M80 535H1120" stroke="#91a9b8" stroke-opacity=".25"/></svg>