<svg xmlns="http://www.w3.org/2000/svg" width="1200" height="630" viewBox="0 0 1200 630" role="img" aria-labelledby="title desc"><title id="title">microboot · Vanderhell Development</title><desc id="desc">A boot-history manager detects crash loops and advises normal, recovery or factory mode.</desc><defs><linearGradient id="bg" x2="1" y2="1"><stop stop-color="#071522"/><stop offset="1" stop-color="#102e46"/></linearGradient><pattern id="grid" width="32" height="32" patternUnits="userSpaceOnUse"><path d="M32 0H0V32" fill="none" stroke="#8db5c8" stroke-opacity=".08"/></pattern></defs><rect width="1200" height="630" fill="url(#bg)"/><rect width="1200" height="630" fill="url(#grid)"/><circle cx="170" cy="170" r="235" fill="#8ed8b8" opacity=".07"/><g><g fill="#0c2336" stroke="#8ed8b8" stroke-width="2"><rect x="530" y="210" width="145" height="100"/><rect x="760" y="210" width="145" height="100"/></g><g fill="#f2f8fb" font-family="monospace" text-anchor="middle"><text x="602" y="250">STATE A</text><text x="602" y="278">VALID</text><text x="832" y="250">STATE B</text><text x="832" y="278">PENDING</text></g><path d="M675 245h85m0 30H675" fill="none" stroke="#8ed8b8" stroke-width="3"/><path d="M750 236l12 9-12 9M685 266l-12 9 12 9" fill="none" stroke="#8ed8b8" stroke-width="2"/></g><text x="80" y="88" fill="#8ed8b8" font-family="monospace" font-size="19" letter-spacing="3">VANDERHELL DEVELOPMENT</text><text x="80" y="280" fill="#f2f8fb" font-family="system-ui,sans-serif" font-size="58" font-weight="700">microboot</text><text x="82" y="334" fill="#9fb7c6" font-family="monospace" font-size="16" letter-spacing="2">MICRO-TOOLKIT · RECOVERY &amp; LIFECYCLE</text><text x="82" y="395" fill="#d1dfe6" font-family="system-ui,sans-serif" font-size="21"><tspan x="82" dy="0">A boot-history manager detects crash loops and advises normal,</tspan><tspan x="82" dy="30">recovery or factory mode.</tspan></text><text x="82" y="570" fill="#7894a7" font-family="monospace" font-size="15">C99 · Development · TECHNICAL PRODUCT</text><path d="M80 118H1120" stroke="#8ed8b8" stroke-opacity=".45"/><path d="M80 535H1120" stroke="#91a9b8" stroke-opacity=".25"/></svg>