<svg xmlns="http://www.w3.org/2000/svg" width="1200" height="630" viewBox="0 0 1200 630" role="img" aria-labelledby="title desc"><title id="title">microbus · Vanderhell Development</title><desc id="desc">A small event bus copies payload bytes and supports synchronous publish or bounded deferred dispatch.</desc><defs><linearGradient id="bg" x2="1" y2="1"><stop stop-color="#071522"/><stop offset="1" stop-color="#102e46"/></linearGradient><pattern id="grid" width="32" height="32" patternUnits="userSpaceOnUse"><path d="M32 0H0V32" fill="none" stroke="#8db5c8" stroke-opacity=".08"/></pattern></defs><rect width="1200" height="630" fill="url(#bg)"/><rect width="1200" height="630" fill="url(#grid)"/><circle cx="170" cy="170" r="235" fill="#8ed8b8" opacity=".07"/><g><g fill="none" stroke="#8ed8b8" stroke-width="2" opacity=".78"><path d="M510 264 C545 264,542 338,577 338"/><path d="M577 338 C612 338,609 264,644 264"/><path d="M644 264 C679 264,676 190,711 190"/><path d="M711 190 C746 190,743 264,778 264"/></g><g fill="#0c2336" stroke="#8ed8b8" stroke-width="2" font-family="monospace" text-anchor="middle"><g><circle cx="510" cy="264" r="7"/><text x="510" y="291">01</text></g><g><circle cx="577" cy="338" r="7"/><text x="577" y="365">02</text></g><g><circle cx="644" cy="264" r="11"/><text x="644" y="291">COMMUNICATIO</text></g><g><circle cx="711" cy="190" r="7"/><text x="711" y="217">04</text></g><g><circle cx="778" cy="264" r="7"/><text x="778" y="291">05</text></g></g></g><text x="80" y="88" fill="#8ed8b8" font-family="monospace" font-size="19" letter-spacing="3">VANDERHELL DEVELOPMENT</text><text x="80" y="280" fill="#f2f8fb" font-family="system-ui,sans-serif" font-size="58" font-weight="700">microbus</text><text x="82" y="334" fill="#9fb7c6" font-family="monospace" font-size="16" letter-spacing="2">MICRO-TOOLKIT · COMMUNICATION</text><text x="82" y="395" fill="#d1dfe6" font-family="system-ui,sans-serif" font-size="21"><tspan x="82" dy="0">A small event bus copies payload bytes and supports synchronous</tspan><tspan x="82" dy="30">publish or bounded deferred dispatch.</tspan></text><text x="82" y="570" fill="#7894a7" font-family="monospace" font-size="15">C99 · Development · TECHNICAL PRODUCT</text><path d="M80 118H1120" stroke="#8ed8b8" stroke-opacity=".45"/><path d="M80 535H1120" stroke="#91a9b8" stroke-opacity=".25"/></svg>